<mxfile host="app.diagrams.net" agent="Mozilla/5.0 (Macintosh; Intel Mac OS X 10_15_7) AppleWebKit/537.36 (KHTML, like Gecko) Chrome/127.0.0.0 Safari/537.36" version="24.7.10">
  <diagram name="Page-1" id="IkVXpdRaMWaMDvUIDPMb">
    <mxGraphModel dx="1716" dy="529" grid="1" gridSize="10" guides="1" tooltips="1" connect="1" arrows="1" fold="1" page="1" pageScale="1" pageWidth="827" pageHeight="1169" math="0" shadow="0">
      <root>
        <mxCell id="0" />
        <mxCell id="1" parent="0" />
        <mxCell id="fuZWJDJsPdj-rpDP-LzW-1" value="&lt;font style=&quot;font-size: 30px;&quot;&gt;HTML First Tutorial&lt;/font&gt;" style="text;html=1;align=center;verticalAlign=middle;resizable=0;points=[];autosize=1;strokeColor=#6c8ebf;fillColor=#dae8fc;fontFamily=Comic Sans MS;strokeWidth=6;" vertex="1" parent="1">
          <mxGeometry x="-760" y="35" width="310" height="50" as="geometry" />
        </mxCell>
        <mxCell id="fuZWJDJsPdj-rpDP-LzW-15" value="&lt;font style=&quot;font-size: 21px;&quot;&gt;What Is HTML?&lt;/font&gt;" style="text;html=1;align=center;verticalAlign=middle;resizable=0;points=[];autosize=1;strokeColor=none;fillColor=none;fontFamily=Comic Sans MS;fontSize=24;fontColor=default;" vertex="1" parent="1">
          <mxGeometry x="-730" y="120" width="180" height="40" as="geometry" />
        </mxCell>
        <mxCell id="fuZWJDJsPdj-rpDP-LzW-22" value="" style="verticalLabelPosition=bottom;verticalAlign=top;html=1;shape=mxgraph.basic.4_point_star_2;dx=0.76;align=center;fontFamily=Comic Sans MS;fontSize=24;fontColor=default;autosize=1;resizable=0;fillColor=#3333FF;gradientColor=none;" vertex="1" parent="1">
          <mxGeometry x="-785" y="120" width="50" height="40" as="geometry" />
        </mxCell>
        <mxCell id="fuZWJDJsPdj-rpDP-LzW-25" value="&lt;ul&gt;&lt;li&gt;&lt;font style=&quot;font-size: 18px;&quot;&gt;HTML Stands for Hyper Text Markup Language&lt;/font&gt;&lt;/li&gt;&lt;/ul&gt;" style="text;html=1;align=center;verticalAlign=middle;resizable=0;points=[];autosize=1;strokeColor=none;fillColor=none;fontFamily=Comic Sans MS;fontSize=24;fontColor=default;horizontal=1;container=0;rounded=0;" vertex="1" parent="1">
          <mxGeometry x="-740" y="145" width="460" height="90" as="geometry" />
        </mxCell>
        <mxCell id="fuZWJDJsPdj-rpDP-LzW-32" value="&lt;font style=&quot;font-size: 20px;&quot;&gt;Download VS Code&lt;/font&gt;" style="text;html=1;align=center;verticalAlign=middle;resizable=0;points=[];autosize=1;strokeColor=none;fillColor=none;fontFamily=Comic Sans MS;fontSize=24;fontColor=default;" vertex="1" parent="1">
          <mxGeometry x="-730" y="260" width="190" height="40" as="geometry" />
        </mxCell>
        <mxCell id="fuZWJDJsPdj-rpDP-LzW-33" value="" style="verticalLabelPosition=bottom;verticalAlign=top;html=1;shape=mxgraph.basic.4_point_star_2;dx=0.76;align=center;fontFamily=Comic Sans MS;fontSize=24;fontColor=default;autosize=1;resizable=0;fillColor=#3333FF;gradientColor=none;" vertex="1" parent="1">
          <mxGeometry x="-785" y="260" width="50" height="40" as="geometry" />
        </mxCell>
        <mxCell id="fuZWJDJsPdj-rpDP-LzW-34" value="&lt;ul&gt;&lt;li&gt;&lt;a href=&quot;https://code.visualstudio.com/download&quot;&gt;&lt;font style=&quot;font-size: 18px;&quot;&gt;https://code.visualstudio.com/download&lt;/font&gt;&lt;/a&gt;&lt;/li&gt;&lt;/ul&gt;" style="text;html=1;align=center;verticalAlign=middle;resizable=0;points=[];autosize=1;strokeColor=none;fillColor=none;fontFamily=Comic Sans MS;fontSize=24;fontColor=default;" vertex="1" parent="1">
          <mxGeometry x="-740" y="290" width="400" height="90" as="geometry" />
        </mxCell>
        <mxCell id="fuZWJDJsPdj-rpDP-LzW-35" value="&lt;font style=&quot;font-size: 20px;&quot;&gt;Use &lt;b&gt;Emmet Software&lt;/b&gt; for Short Key&lt;/font&gt;" style="text;html=1;align=center;verticalAlign=middle;resizable=0;points=[];autosize=1;strokeColor=none;fillColor=none;fontFamily=Comic Sans MS;fontSize=24;fontColor=default;" vertex="1" parent="1">
          <mxGeometry x="-730" y="400" width="360" height="40" as="geometry" />
        </mxCell>
        <mxCell id="fuZWJDJsPdj-rpDP-LzW-36" value="" style="verticalLabelPosition=bottom;verticalAlign=top;html=1;shape=mxgraph.basic.4_point_star_2;dx=0.76;align=center;fontFamily=Comic Sans MS;fontSize=24;fontColor=default;autosize=1;resizable=0;fillColor=#3333FF;gradientColor=none;" vertex="1" parent="1">
          <mxGeometry x="-785" y="400" width="50" height="40" as="geometry" />
        </mxCell>
        <mxCell id="fuZWJDJsPdj-rpDP-LzW-39" value="&lt;div style=&quot;text-align: start;&quot;&gt;&lt;span style=&quot;background-color: initial; font-size: 0px;&quot;&gt;&lt;font face=&quot;monospace&quot; color=&quot;#ba0000&quot;&gt;https://emmet.io/&lt;/font&gt;&lt;/span&gt;&lt;/div&gt;" style="text;html=1;align=center;verticalAlign=middle;resizable=0;points=[];autosize=1;strokeColor=none;fillColor=none;fontFamily=Comic Sans MS;fontSize=24;fontColor=default;" vertex="1" parent="1">
          <mxGeometry x="-545" y="455" width="20" height="40" as="geometry" />
        </mxCell>
        <mxCell id="fuZWJDJsPdj-rpDP-LzW-40" value="&lt;ul&gt;&lt;li&gt;&lt;font style=&quot;font-size: 18px;&quot;&gt;&lt;a href=&quot;https://emmet.io/&quot;&gt;https://emmet.io/&lt;/a&gt;&lt;/font&gt;&lt;/li&gt;&lt;/ul&gt;" style="text;html=1;align=center;verticalAlign=middle;resizable=0;points=[];autosize=1;strokeColor=none;fillColor=none;fontFamily=Comic Sans MS;fontSize=24;fontColor=default;" vertex="1" parent="1">
          <mxGeometry x="-740" y="440" width="220" height="90" as="geometry" />
        </mxCell>
        <mxCell id="fuZWJDJsPdj-rpDP-LzW-41" value="&lt;span style=&quot;font-size: 20px;&quot;&gt;Install Extension In VS Code&lt;/span&gt;" style="text;html=1;align=center;verticalAlign=middle;resizable=0;points=[];autosize=1;strokeColor=none;fillColor=none;fontFamily=Comic Sans MS;fontSize=24;fontColor=default;" vertex="1" parent="1">
          <mxGeometry x="-730" y="530" width="290" height="40" as="geometry" />
        </mxCell>
        <mxCell id="fuZWJDJsPdj-rpDP-LzW-42" value="" style="verticalLabelPosition=bottom;verticalAlign=top;html=1;shape=mxgraph.basic.4_point_star_2;dx=0.76;align=center;fontFamily=Comic Sans MS;fontSize=24;fontColor=default;autosize=1;resizable=0;fillColor=#3333FF;gradientColor=none;" vertex="1" parent="1">
          <mxGeometry x="-785" y="530" width="50" height="40" as="geometry" />
        </mxCell>
        <mxCell id="fuZWJDJsPdj-rpDP-LzW-43" value="&lt;ul&gt;&lt;li&gt;&lt;font style=&quot;font-size: 18px;&quot;&gt;Live Server&lt;/font&gt;&lt;/li&gt;&lt;/ul&gt;" style="text;html=1;align=center;verticalAlign=middle;resizable=0;points=[];autosize=1;strokeColor=none;fillColor=none;fontFamily=Comic Sans MS;fontSize=24;fontColor=default;horizontal=1;container=0;rounded=0;" vertex="1" parent="1">
          <mxGeometry x="-735" y="560" width="160" height="90" as="geometry" />
        </mxCell>
      </root>
    </mxGraphModel>
  </diagram>
</mxfile>
